<svg width="108" height="106" viewBox="0 0 108 106" fill="none" xmlns="http://www.w3.org/2000/svg">
<path d="M28.1827 46.0593C23.6921 50.4505 29.1408 57.6465 34.5852 54.5151L83.1225 26.5983C84.5503 25.7771 86.3662 26.1459 87.3605 27.4591C88.3549 28.7723 88.2174 30.6201 87.0397 31.7718L47.0063 70.9194C42.5157 75.3106 47.9644 82.5065 53.4088 79.3751L101.315 51.8212C103.104 50.7926 105.378 51.2545 106.624 52.8994C107.889 54.5707 107.688 56.9278 106.159 58.3613L59.1705 102.396C51.3249 108.337 40.149 106.792 34.2085 98.9466L4.09066 59.1706C-1.84991 51.325 -0.305581 40.1491 7.54003 34.2085L62.6336 0.943186C64.4474 -0.151969 66.7953 0.298978 68.0743 1.98815C69.333 3.65054 69.159 5.98964 67.6682 7.4475L28.1827 46.0593Z" fill="black"/>
</svg>
